<svg width="608" height="318" viewBox="0 0 608 318" fill="none" xmlns="http://www.w3.org/2000/svg">
<path d="M571.076 289.737C567.475 282.867 552.841 277.348 546.292 276.097C511.336 269.425 474.723 270.357 439.312 270.469C400.748 270.591 363.953 276.763 325.708 279.621C305.82 281.103 284.801 278.435 264.867 277.743C232.04 276.605 199.22 275.271 166.408 273.739C138.117 272.419 108.755 275.379 83.8 290.976C80.964 292.751 78.0986 294.891 76.808 298.073C68.7013 318.057 169.732 315.547 182.895 315.889C249.291 317.617 315.731 318.51 382.135 316.714C431.508 315.376 482.964 315.457 531.929 308.491C542.757 306.949 557.493 306.397 566.848 300.024C572.024 296.499 572.771 292.969 571.076 289.737Z" fill="#ECF8FE"/>
<path d="M528.099 17.652C528.955 17.652 529.836 17.6693 530.74 17.7027L530.789 16.3693C529.869 16.336 528.971 16.3187 528.099 16.3187V17.652Z" fill="#FFB987"/>
<path d="M536.039 18.072C537.767 18.248 539.532 18.4787 541.309 18.768L541.524 17.4533C539.72 17.1586 537.927 16.924 536.173 16.7453L536.039 18.072ZM546.524 19.7866C548.26 20.184 549.979 20.64 551.652 21.1533L552.044 19.88C550.336 19.3547 548.587 18.892 546.823 18.4866L546.524 19.7866ZM556.64 22.928C558.32 23.6173 559.915 24.3773 561.391 25.208L562.045 24.0467C560.513 23.184 558.869 22.4013 557.147 21.6947L556.64 22.928ZM565.712 28.1453C567.108 29.3067 568.288 30.5666 569.204 31.924L570.309 31.1773C569.309 29.6987 568.041 28.3493 566.567 27.1213L565.712 28.1453ZM571.183 36.5627C571.339 37.3387 571.419 38.1427 571.419 38.976C571.419 39.6987 571.359 40.4453 571.231 41.216C571.209 41.344 571.185 41.472 571.157 41.5987L572.46 41.884C572.492 41.7346 572.521 41.584 572.547 41.432C572.685 40.5933 572.752 39.7747 572.752 38.976C572.752 38.056 572.663 37.164 572.489 36.3013L571.183 36.5627ZM568.735 45.832C567.664 46.92 566.268 47.924 564.58 48.8413L565.217 50.0133C566.992 49.048 568.496 47.9747 569.684 46.768L568.735 45.832ZM559.779 50.956C558.221 51.5186 556.529 52.036 554.719 52.5107L555.057 53.8C556.899 53.3173 558.629 52.7893 560.232 52.2107L559.779 50.956ZM549.537 53.692C547.857 54.0253 546.104 54.3293 544.289 54.608L544.492 55.9266C546.324 55.6453 548.095 55.3373 549.796 55L549.537 53.692ZM539.004 55.3266C537.275 55.5333 535.503 55.7213 533.695 55.8906L533.819 57.2173C535.637 57.048 537.421 56.8586 539.163 56.6506L539.004 55.3266ZM528.371 56.328C526.616 56.4546 524.836 56.5667 523.036 56.664L523.108 57.9946C524.916 57.8973 526.704 57.7853 528.465 57.6586L528.371 56.328ZM517.695 56.9133C515.925 56.9827 514.141 57.04 512.349 57.088L512.384 58.4213C514.183 58.3733 515.972 58.3147 517.747 58.2453L517.695 56.9133ZM507.005 57.2C505.224 57.228 503.44 57.2453 501.656 57.2573L501.664 58.5893C503.452 58.5786 505.241 58.5613 507.025 58.5333L507.005 57.2ZM496.304 57.2653C494.515 57.2613 492.729 57.2493 490.955 57.232L490.941 58.5653C492.72 58.5827 494.508 58.5947 496.301 58.5987L496.304 57.2653ZM485.604 57.1613C483.804 57.132 482.02 57.0973 480.255 57.06L480.225 58.392C481.992 58.4306 483.78 58.4653 485.583 58.4946L485.604 57.1613ZM474.904 56.9307C473.091 56.8827 471.305 56.832 469.555 56.7787L469.515 58.112C471.267 58.164 473.053 58.2147 474.869 58.2627L474.904 56.9307ZM464.204 56.6107C462.368 56.5507 460.581 56.4893 458.853 56.4307L458.807 57.7627C460.537 57.8227 462.324 57.8827 464.16 57.9427L464.204 56.6107ZM453.5 56.248C451.62 56.1853 449.831 56.1267 448.145 56.076L448.105 57.408C449.788 57.4587 451.576 57.5173 453.456 57.5813L453.5 56.248ZM442.784 55.936C441.152 55.9027 439.673 55.884 438.368 55.884C438.037 55.884 437.719 55.884 437.411 55.8866L437.421 57.22C437.725 57.2173 438.041 57.216 438.368 57.216C439.661 57.216 441.131 57.236 442.757 57.2693L442.784 55.936ZM432.057 55.9387C430.275 55.956 428.491 55.9733 426.705 55.9906L426.719 57.324C428.504 57.3066 430.287 57.2893 432.071 57.272L432.057 55.9387ZM421.353 56.0467C419.569 56.0667 417.785 56.0867 416 56.1093L416.016 57.4413C417.8 57.42 419.584 57.4 421.368 57.38L421.353 56.0467ZM410.647 56.18C408.863 56.2053 407.077 56.2333 405.293 56.264L405.316 57.5973C407.099 57.5667 408.883 57.5387 410.665 57.5133L410.647 56.18ZM399.939 56.3627C398.155 56.3987 396.369 56.4373 394.584 56.4787L394.616 57.812C396.399 57.7693 398.183 57.732 399.965 57.696L399.939 56.3627ZM389.231 56.6173C387.445 56.6666 385.661 56.72 383.876 56.7787L383.92 58.1107C385.703 58.0533 387.485 57.9987 389.268 57.9493L389.231 56.6173ZM378.523 56.9667C376.739 57.0347 374.953 57.1066 373.169 57.184L373.228 58.516C375.009 58.4387 376.791 58.3667 378.573 58.2987L378.523 56.9667ZM367.817 57.4347C366.033 57.524 364.251 57.62 362.467 57.7213L362.544 59.052C364.323 58.9506 366.104 58.856 367.884 58.7667L367.817 57.4347ZM357.119 58.0467C355.336 58.1613 353.553 58.284 351.772 58.412L351.869 59.7427C353.647 59.6133 355.425 59.492 357.204 59.3773L357.119 58.0467ZM346.429 58.8226C344.648 58.968 342.868 59.1213 341.089 59.2813L341.209 60.6093C342.984 60.4493 344.76 60.2973 346.536 60.152L346.429 58.8226ZM335.753 59.7906C333.976 59.968 332.199 60.156 330.423 60.352L330.569 61.6773C332.34 61.4813 334.113 61.2946 335.887 61.1173L335.753 59.7906ZM325.099 60.9693C323.324 61.1853 321.552 61.412 319.781 61.6467L319.957 62.9693C321.723 62.7333 323.491 62.5093 325.259 62.2933L325.099 60.9693ZM314.472 62.3866C312.704 62.6426 310.937 62.9106 309.172 63.1906L309.38 64.5067C311.14 64.2293 312.901 63.9627 314.664 63.7053L314.472 62.3866ZM303.883 64.0613C302.123 64.364 300.363 64.6773 298.605 65.0027L298.849 66.3133C300.6 65.9893 302.353 65.676 304.108 65.376L303.883 64.0613ZM293.343 66.0173C291.591 66.368 289.841 66.7307 288.093 67.1067L288.373 68.4107C290.115 68.036 291.859 67.6733 293.604 67.324L293.343 66.0173ZM282.849 68.3013C281.164 68.7253 279.415 69.2133 277.656 69.7813L278.065 71.0493C279.791 70.492 281.512 70.012 283.175 69.5946L282.849 68.3027V68.3013ZM272.577 71.6653C270.9 72.3813 269.263 73.1867 267.715 74.0973L268.391 75.2467C269.88 74.3707 271.467 73.5893 273.101 72.892L272.577 71.6653ZM263.26 77.2747C261.856 78.5027 260.616 79.8733 259.609 81.404L260.723 82.1373C261.655 80.7213 262.811 79.4387 264.139 78.2773L263.26 77.2747ZM257.363 86.4693C257.023 87.808 256.843 89.2333 256.843 90.7467C256.843 91.1507 256.855 91.5627 256.881 91.98L258.212 91.896C258.188 91.5053 258.176 91.1227 258.176 90.7467C258.176 89.34 258.344 88.0266 258.655 86.796L257.363 86.4693ZM258.081 97.3827C258.744 99.0907 259.645 100.709 260.715 102.215L261.801 101.444C260.789 100.017 259.943 98.4933 259.325 96.9L258.081 97.3827ZM264.321 106.336C264.481 106.487 264.641 106.635 264.804 106.781C266.001 107.864 267.237 108.865 268.508 109.795L269.295 108.719C268.061 107.816 266.861 106.843 265.697 105.792C265.543 105.652 265.389 105.511 265.236 105.367L264.321 106.336ZM273.059 112.747C274.632 113.648 276.244 114.46 277.889 115.195L278.433 113.977C276.825 113.26 275.253 112.467 273.723 111.589L273.059 112.747ZM282.919 117.18C284.613 117.769 286.336 118.292 288.077 118.763L288.424 117.475C286.709 117.012 285.019 116.497 283.356 115.92L282.919 117.18ZM293.317 120.013C295.068 120.381 296.833 120.709 298.605 121.005L298.825 119.691C297.068 119.396 295.323 119.072 293.592 118.708L293.317 120.013ZM303.917 121.809C305.691 122.053 307.467 122.279 309.239 122.493L309.4 121.169C307.632 120.955 305.863 120.732 304.099 120.488L303.917 121.809ZM314.563 123.121C315.94 123.283 317.311 123.444 318.675 123.612C319.06 123.659 319.465 123.704 319.889 123.749L320.028 122.423C319.612 122.379 319.215 122.335 318.836 122.288C317.469 122.12 316.095 121.959 314.717 121.797L314.561 123.121H314.563ZM325.272 124.181C326.919 124.284 328.715 124.377 330.648 124.461L330.705 123.129C328.779 123.045 326.991 122.953 325.356 122.851L325.272 124.181ZM336.017 124.663C337.729 124.719 339.521 124.771 341.385 124.819L341.42 123.485C339.557 123.437 337.769 123.387 336.061 123.331L336.017 124.663ZM346.751 124.943C348.489 124.98 350.279 125.015 352.115 125.047L352.139 123.715C350.304 123.681 348.516 123.647 346.779 123.609L346.751 124.943ZM357.477 125.139C359.231 125.167 361.019 125.193 362.839 125.22L362.859 123.887C361.039 123.86 359.251 123.833 357.499 123.805L357.477 125.139ZM368.2 125.297C369.961 125.323 371.749 125.348 373.56 125.373L373.579 124.04C371.768 124.015 369.981 123.989 368.219 123.965L368.2 125.297ZM378.92 125.449C380.688 125.475 382.476 125.501 384.28 125.528L384.3 124.195C382.495 124.168 380.708 124.141 378.939 124.116L378.92 125.449ZM389.637 125.611C391.411 125.639 393.197 125.668 394.996 125.7L395.019 124.367C393.22 124.336 391.433 124.305 389.659 124.277L389.637 125.611ZM400.353 125.796C402.131 125.829 403.917 125.864 405.711 125.901L405.739 124.569C403.944 124.532 402.157 124.496 400.379 124.463L400.353 125.796ZM411.068 126.017C412.843 126.059 414.623 126.101 416.408 126.147L416.441 124.813C414.656 124.768 412.875 124.725 411.097 124.685L411.068 126.017ZM421.757 126.288C423.544 126.339 425.331 126.391 427.117 126.447L427.159 125.113C425.371 125.057 423.581 125.005 421.795 124.956L421.757 126.288ZM432.488 126.621C434.275 126.683 436.06 126.747 437.841 126.815L437.892 125.483C436.108 125.415 434.321 125.351 432.533 125.289L432.488 126.621ZM443.193 127.029C444.983 127.105 446.768 127.184 448.544 127.268L448.607 125.936C446.828 125.852 445.041 125.773 443.249 125.697L443.193 127.029ZM453.893 127.531C455.687 127.624 457.469 127.721 459.241 127.824L459.319 126.492C457.544 126.391 455.759 126.293 453.963 126.2L453.893 127.531ZM464.587 128.148C466.383 128.263 468.164 128.383 469.929 128.508L470.024 127.177C468.256 127.052 466.471 126.932 464.672 126.817L464.587 128.148ZM475.269 128.908C477.069 129.051 478.848 129.199 480.605 129.353L480.721 128.025C478.961 127.869 477.177 127.721 475.375 127.579L475.269 128.908ZM485.935 129.851C487.737 130.029 489.513 130.215 491.257 130.408L491.405 129.084C489.655 128.889 487.875 128.703 486.065 128.524L485.935 129.851ZM496.572 131.036C498.38 131.263 500.148 131.5 501.875 131.747L502.063 130.427C500.329 130.179 498.553 129.941 496.739 129.713L496.572 131.036ZM507.16 132.559C508.972 132.857 510.727 133.168 512.421 133.495L512.672 132.184C510.967 131.856 509.199 131.543 507.376 131.243L507.16 132.559ZM517.645 134.588C519.461 135.004 521.187 135.439 522.811 135.895L523.171 134.611C521.523 134.148 519.777 133.708 517.943 133.288L517.645 134.588ZM527.889 137.481C529.537 138.035 531.224 138.631 532.865 139.32L533.381 138.091C531.693 137.383 529.976 136.775 528.313 136.217L527.889 137.481ZM537.545 141.688C539.035 142.612 540.399 143.676 541.563 144.924L542.539 144.016C541.277 142.663 539.817 141.528 538.248 140.555L537.545 141.688ZM544.344 149.184C544.96 150.639 545.373 152.281 545.529 154.156L546.859 154.045C546.692 152.04 546.245 150.253 545.572 148.664L544.344 149.184ZM545.235 159.248C544.872 160.933 544.247 162.501 543.383 163.971L544.532 164.647C545.464 163.063 546.145 161.356 546.539 159.528L545.235 159.248ZM540.191 167.992C539.005 169.153 537.643 170.237 536.124 171.249L536.863 172.359C538.441 171.307 539.869 170.172 541.124 168.945L540.191 167.992ZM531.555 173.86C530.029 174.612 528.405 175.313 526.699 175.968L527.176 177.212C528.916 176.545 530.577 175.828 532.144 175.055L531.555 173.86ZM521.672 177.689C520.013 178.197 518.299 178.671 516.54 179.109L516.863 180.403C518.643 179.959 520.379 179.48 522.063 178.964L521.672 177.689ZM511.337 180.287C509.616 180.64 507.864 180.965 506.089 181.267L506.312 182.581C508.1 182.279 509.868 181.949 511.605 181.593L511.337 180.287ZM500.808 182.083C499.053 182.329 497.284 182.555 495.511 182.76L495.664 184.084C497.448 183.877 499.227 183.652 500.993 183.404L500.808 182.083ZM490.185 183.319C488.403 183.488 486.623 183.64 484.853 183.775L484.955 185.104C486.732 184.968 488.52 184.816 490.311 184.647L490.185 183.319ZM479.512 184.143C477.707 184.253 475.921 184.348 474.165 184.432L474.228 185.764C475.989 185.68 477.781 185.584 479.593 185.473L479.512 184.143ZM468.812 184.655C466.977 184.721 465.188 184.776 463.456 184.821L463.491 186.153C465.227 186.108 467.021 186.053 468.86 185.987L468.812 184.655ZM458.096 184.941C456.204 184.977 454.409 185.007 452.731 185.032L452.751 186.365C454.431 186.34 456.227 186.311 458.121 186.275L458.096 184.941ZM447.36 185.12C446.603 185.133 445.885 185.149 445.213 185.167C444.143 185.193 443.073 185.22 442.004 185.247L442.036 186.58C443.107 186.553 444.176 186.527 445.247 186.5C445.916 186.483 446.629 186.467 447.385 186.453L447.36 185.12ZM436.653 185.371C434.869 185.411 433.087 185.449 431.303 185.485L431.329 186.819C433.115 186.783 434.899 186.744 436.683 186.704L436.653 185.371ZM425.952 185.589C424.168 185.623 422.384 185.653 420.601 185.684L420.623 187.016C422.408 186.987 424.192 186.956 425.976 186.923L425.952 185.589ZM415.249 185.768C413.465 185.795 411.683 185.819 409.899 185.843L409.916 187.176C411.7 187.152 413.485 187.127 415.269 187.101L415.249 185.768ZM404.547 185.908C402.763 185.928 400.979 185.947 399.195 185.964L399.208 187.297C400.993 187.28 402.777 187.261 404.561 187.24L404.547 185.908ZM393.844 186.011C392.06 186.025 390.276 186.037 388.492 186.049L388.5 187.383C390.285 187.371 392.069 187.359 393.855 187.344L393.844 186.011ZM383.14 186.08C381.356 186.088 379.572 186.096 377.788 186.101L377.792 187.435C379.577 187.429 381.361 187.421 383.147 187.413L383.14 186.08ZM372.436 186.115C370.652 186.119 368.868 186.12 367.084 186.121V187.455C368.869 187.455 370.653 187.452 372.439 187.448L372.436 186.115ZM361.732 186.12C359.948 186.119 358.164 186.116 356.379 186.111L356.376 187.444C358.161 187.449 359.945 187.452 361.731 187.453L361.732 186.12ZM351.027 186.096C349.243 186.089 347.459 186.081 345.675 186.073L345.668 187.405C347.453 187.415 349.237 187.423 351.023 187.429L351.027 186.096ZM340.323 186.044C338.539 186.032 336.755 186.02 334.971 186.008L334.961 187.341C336.745 187.353 338.531 187.365 340.315 187.377L340.323 186.044ZM329.619 185.965C327.835 185.951 326.051 185.935 324.267 185.917L324.253 187.251C326.039 187.268 327.823 187.284 329.608 187.299L329.619 185.965ZM318.915 185.864C317.131 185.845 315.347 185.825 313.563 185.805L313.547 187.139C315.331 187.159 317.116 187.179 318.9 187.197L318.915 185.864ZM308.211 185.74C306.427 185.717 304.643 185.695 302.859 185.671L302.84 187.004C304.625 187.028 306.409 187.051 308.193 187.073L308.211 185.74ZM297.507 185.596C295.723 185.571 293.939 185.544 292.155 185.517L292.135 186.851C293.919 186.877 295.703 186.904 297.487 186.929L297.507 185.596ZM286.803 185.433C285.019 185.405 283.235 185.376 281.451 185.345L281.428 186.679C283.212 186.709 284.997 186.739 286.781 186.767L286.803 185.433ZM276.099 185.255C274.315 185.223 272.531 185.191 270.747 185.159L270.723 186.492C272.507 186.524 274.291 186.556 276.076 186.588L276.099 185.255ZM265.396 185.06C263.612 185.027 261.828 184.992 260.044 184.957L260.017 186.291C261.801 186.325 263.587 186.36 265.371 186.393L265.396 185.06ZM254.692 184.853C252.908 184.817 251.124 184.783 249.34 184.748L249.315 186.081C251.099 186.116 252.883 186.151 254.665 186.185L254.692 184.853ZM243.989 184.643C242.205 184.608 240.421 184.572 238.637 184.536L238.611 185.869C240.395 185.905 242.179 185.94 243.963 185.976L243.989 184.643ZM233.285 184.429C231.503 184.393 229.719 184.357 227.935 184.32L227.907 185.653C229.691 185.691 231.475 185.727 233.259 185.763L233.285 184.429ZM222.583 184.208C220.8 184.171 219.016 184.132 217.232 184.093L217.203 185.427C218.987 185.465 220.771 185.504 222.555 185.541L222.583 184.208ZM211.881 183.975C210.097 183.933 208.313 183.893 206.529 183.851L206.499 185.184C208.283 185.225 210.067 185.267 211.851 185.307L211.881 183.975ZM201.179 183.721C199.396 183.677 197.612 183.632 195.829 183.587L195.795 184.92C197.579 184.965 199.363 185.011 201.147 185.055L201.179 183.721ZM190.479 183.445C188.695 183.397 186.912 183.348 185.128 183.296L185.091 184.629C186.875 184.68 188.659 184.729 190.443 184.779L190.479 183.445ZM179.779 183.14C177.995 183.087 176.212 183.032 174.429 182.975L174.387 184.308C176.171 184.364 177.955 184.42 179.739 184.473L179.779 183.14ZM169.08 182.801C167.297 182.741 165.515 182.68 163.731 182.617L163.684 183.949C165.468 184.012 167.252 184.073 169.036 184.133L169.08 182.801ZM158.383 182.423C156.6 182.356 154.817 182.288 153.035 182.217L152.983 183.549C154.765 183.62 156.549 183.688 158.333 183.755L158.383 182.423ZM147.688 182C145.905 181.925 144.123 181.849 142.341 181.771L142.283 183.103C144.065 183.181 145.849 183.257 147.632 183.332L147.688 182ZM136.995 181.527C135.213 181.444 133.431 181.359 131.649 181.271L131.584 182.603C133.367 182.691 135.149 182.776 136.932 182.859L136.995 181.527ZM126.305 181C124.524 180.907 122.743 180.812 120.961 180.713L120.888 182.045C122.671 182.143 124.453 182.239 126.236 182.332L126.305 181ZM115.619 180.412C113.837 180.309 112.057 180.203 110.277 180.095L110.195 181.425C111.977 181.533 113.759 181.64 115.541 181.743L115.619 180.412ZM104.936 179.759C104.807 179.751 104.676 179.743 104.547 179.733C102.969 179.632 101.309 179.536 99.5839 179.437L99.5079 180.769C101.232 180.867 102.889 180.963 104.461 181.064C104.591 181.073 104.72 181.081 104.851 181.089L104.936 179.759ZM94.2386 179.127C92.4986 179.021 90.7146 178.905 88.9013 178.773L88.8039 180.103C90.6253 180.236 92.4133 180.352 94.1573 180.457L94.2373 179.127H94.2386ZM83.5746 178.336C81.8173 178.173 80.0439 177.989 78.2666 177.777L78.1093 179.101C79.8999 179.315 81.6839 179.5 83.4519 179.663L83.5746 178.336ZM72.9799 177.063C71.2186 176.792 69.4653 176.489 67.7319 176.148L67.4746 177.456C69.2279 177.801 70.9999 178.108 72.7786 178.38L72.9799 177.063ZM62.5413 174.985C60.8026 174.544 59.0986 174.056 57.4413 173.513L57.0266 174.78C58.7146 175.333 60.4479 175.831 62.2133 176.277L62.5413 174.985ZM52.4839 171.656C50.8319 170.951 49.2493 170.175 47.7519 169.324L47.0933 170.483C48.6386 171.361 50.2666 172.159 51.9586 172.883L52.4839 171.656ZM43.3813 166.417C42.4706 165.707 41.6079 164.956 40.8013 164.161C40.3759 163.743 39.9719 163.307 39.5893 162.853L38.5719 163.715C38.9799 164.199 39.4119 164.664 39.8653 165.111C40.7119 165.944 41.6119 166.729 42.5613 167.469L43.3813 166.417ZM36.7973 158.511C36.0573 156.941 35.5306 155.284 35.2426 153.593L33.9279 153.817C34.2373 155.631 34.8013 157.403 35.5906 159.079L36.7973 158.511ZM35.1226 148.459C35.3373 146.784 35.8079 145.129 36.5626 143.545L35.3586 142.973C34.5413 144.688 34.0319 146.48 33.8013 148.289L35.1226 148.459ZM39.4559 139.311C40.5573 138.125 41.8799 137.02 43.4439 136.027L42.7279 134.901C41.0746 135.952 39.6613 137.131 38.4786 138.404L39.4559 139.311ZM48.1546 133.987C49.6853 133.563 51.4293 133.227 53.3173 132.964L53.1333 131.643C51.2026 131.913 49.4053 132.257 47.7986 132.703L48.1546 133.987ZM58.5999 132.421C60.3266 132.297 62.1119 132.211 63.9199 132.151L63.8759 130.817C62.0546 130.879 60.2519 130.965 58.5039 131.092L58.5999 132.421ZM69.2599 132.043C70.5599 132.029 71.8533 132.025 73.1279 132.025C73.6239 132.025 74.1173 132.027 74.6066 132.028L74.6106 130.695C74.1199 130.693 73.6253 130.692 73.1279 130.692C71.8506 130.692 70.5533 130.696 69.2479 130.709L69.2599 132.043ZM79.9613 132.043C80.1879 132.044 80.4119 132.044 80.6346 132.044C82.3106 132.044 83.8893 132.035 85.3293 132.004L85.3013 130.671C83.8759 130.701 82.3066 130.711 80.6346 130.711C80.4119 130.711 80.1879 130.711 79.9626 130.709L79.9613 132.043ZM90.7266 131.687C92.6759 131.484 94.4586 131.213 96.0813 130.884L95.816 129.577C94.24 129.897 92.4999 130.161 90.5879 130.361L90.7266 131.687ZM101.331 129.423C103.34 128.673 104.957 127.795 106.209 126.807L105.384 125.76C104.271 126.64 102.775 127.463 100.865 128.173L101.331 129.423ZM109.315 122.023C109.369 121.688 109.396 121.352 109.396 121.015C109.396 119.479 108.836 117.947 107.832 116.507L106.737 117.269C107.624 118.541 108.063 119.808 108.063 121.015C108.063 121.28 108.041 121.544 107.999 121.805L109.315 122.023ZM103.819 112.659C102.436 111.7 100.825 110.816 99.0079 110.037L98.4826 111.263C100.227 112.011 101.76 112.853 103.057 113.755L103.819 112.659ZM93.8573 108.272C92.1919 107.827 90.4146 107.46 88.5386 107.187L88.3466 108.505C90.1733 108.772 91.8986 109.129 93.5133 109.56L93.8573 108.272Z" fill="#FFB987"/>
<path d="M83.2906 106.688C82.408 106.647 81.508 106.625 80.5933 106.625V107.959C81.488 107.959 82.3666 107.98 83.2293 108.02L83.2906 106.688Z" fill="#FFB987"/>
<path d="M491.023 25.3013L522.927 36.4667L516.644 3.25333L491.023 25.3013ZM523.667 39.4267C523.435 39.4267 523.201 39.388 522.976 39.3093L489.211 27.4933C488.505 27.2467 487.98 26.636 487.843 25.9027C487.703 25.168 487.969 24.4107 488.535 23.9227L515.652 0.587993C516.217 0.101326 517.004 -0.0493333 517.712 0.197333C518.417 0.444 518.941 1.05333 519.08 1.78799L525.731 36.94C525.869 37.6733 525.604 38.432 525.037 38.92C524.652 39.252 524.163 39.4267 523.667 39.4267Z" fill="#E16C39"/>
<path d="M509.007 25.076C508.367 24.8533 508.017 24.1653 508.212 23.5173L511.56 11.7706C511.885 10.6866 513.051 10.0933 514.119 10.4666C515.188 10.8413 515.728 12.0306 515.307 13.0813L510.6 24.3533C510.348 24.9813 509.645 25.3 509.007 25.076Z" fill="#E16C39"/>
<path d="M509.252 28.2787C509.017 28.9507 508.281 29.3053 507.609 29.0706C506.937 28.8346 506.583 28.0986 506.817 27.4266C507.053 26.7546 507.788 26.4 508.461 26.636C509.133 26.8706 509.487 27.6067 509.252 28.2787Z" fill="#E16C39"/>
<path d="M53.9547 107.968L73.1893 95.22L52.532 84.936L53.9547 107.968ZM75.104 96.0373C75.008 96.164 74.892 96.2747 74.756 96.3653L54.4 109.857C53.9747 110.139 53.4267 110.173 52.9707 109.945C52.5133 109.719 52.2107 109.261 52.18 108.752L50.6733 84.3773C50.6413 83.868 50.884 83.3787 51.3107 83.0947C51.7347 82.812 52.2827 82.78 52.74 83.0067L74.6027 93.8893C75.06 94.116 75.3627 94.5733 75.3947 95.0827C75.4147 95.4293 75.3093 95.768 75.104 96.0373Z" fill="#E16C39"/>
<path d="M61.252 98.0933C60.8667 98.348 60.348 98.2547 60.076 97.8813L55.0667 91.2147C54.612 90.5907 54.7693 89.7133 55.4133 89.2853C56.0587 88.8586 56.928 89.056 57.3267 89.7186L61.5147 96.928C61.7533 97.324 61.6373 97.8373 61.252 98.0933Z" fill="#E16C39"/>
<path d="M63.0946 99.28C63.3626 99.6853 63.252 100.232 62.8466 100.5C62.4413 100.769 61.896 100.657 61.6266 100.253C61.3586 99.848 61.4693 99.3013 61.8746 99.0333C62.28 98.764 62.8253 98.8747 63.0946 99.28Z" fill="#E16C39"/>
<path d="M98.6533 150.465H97.9866C97.9853 151.319 97.2933 152.011 96.4386 152.012C95.584 152.011 94.8919 151.319 94.8906 150.465C94.8919 149.611 95.584 148.919 96.4386 148.917C97.2933 148.919 97.9853 149.611 97.9866 150.465H98.6533H99.3199C99.3186 148.873 98.0306 147.584 96.4386 147.584C94.848 147.584 93.5586 148.873 93.5573 150.465C93.5586 152.056 94.848 153.345 96.4386 153.345C98.0306 153.345 99.3186 152.056 99.3199 150.465H98.6533Z" fill="#FFB987"/>
<path d="M427.217 109.507H426.551C426.549 110.361 425.857 111.053 425.003 111.055C424.148 111.053 423.457 110.361 423.456 109.507C423.457 108.652 424.148 107.96 425.003 107.959C425.857 107.96 426.549 108.652 426.551 109.507H427.217H427.884C427.884 107.915 426.595 106.627 425.003 106.625C423.412 106.627 422.123 107.915 422.123 109.507C422.123 111.097 423.412 112.387 425.003 112.388C426.595 112.387 427.884 111.097 427.884 109.507H427.217Z" fill="#FFB987"/>
<path d="M252.892 47.4786H252.225C252.224 48.332 251.533 49.0239 250.679 49.0253C249.824 49.0239 249.132 48.332 249.131 47.4786C249.132 46.624 249.824 45.932 250.679 45.9306C251.533 45.932 252.224 46.624 252.225 47.4786H252.892H253.559C253.559 45.8866 252.269 44.5973 250.679 44.5973C249.087 44.5973 247.797 45.8866 247.797 47.4786C247.797 49.0693 249.087 50.3586 250.679 50.3586C252.269 50.3586 253.559 49.0693 253.559 47.4786H252.892Z" fill="#FFB987"/>
<path d="M250.236 215.816H249.569C249.568 216.671 248.876 217.361 248.021 217.363C247.167 217.361 246.476 216.671 246.475 215.816C246.476 214.961 247.167 214.269 248.021 214.268C248.876 214.269 249.568 214.961 249.569 215.816H250.236H250.903C250.903 214.224 249.613 212.935 248.021 212.935C246.431 212.935 245.141 214.224 245.141 215.816C245.141 217.407 246.431 218.696 248.021 218.696C249.613 218.696 250.903 217.407 250.903 215.816H250.236Z" fill="#FFB987"/>
<path d="M298.943 85.4786V90.4866C298.943 90.8546 299.241 91.1533 299.609 91.1533C299.977 91.1533 300.276 90.8546 300.276 90.4866V85.4786C300.276 85.1093 299.977 84.812 299.609 84.812C299.241 84.812 298.943 85.1093 298.943 85.4786Z" fill="#FFB987"/>
<path d="M302.113 87.3147H297.105C296.737 87.3147 296.439 87.6133 296.439 87.9813C296.439 88.3507 296.737 88.648 297.105 88.648H302.113C302.481 88.648 302.78 88.3507 302.78 87.9813C302.78 87.6133 302.481 87.3147 302.113 87.3147Z" fill="#FFB987"/>
<path d="M388.821 21.4959V26.504C388.821 26.8733 389.12 27.1706 389.488 27.1706C389.856 27.1706 390.155 26.8733 390.155 26.504V21.4959C390.155 21.1279 389.856 20.8293 389.488 20.8293C389.12 20.8293 388.821 21.1279 388.821 21.4959Z" fill="#FFB987"/>
<path d="M391.992 23.3333H386.984C386.616 23.3333 386.317 23.632 386.317 24C386.317 24.3693 386.616 24.6667 386.984 24.6667H391.992C392.36 24.6667 392.659 24.3693 392.659 24C392.659 23.632 392.36 23.3333 391.992 23.3333Z" fill="#FFB987"/>
<path d="M527.873 156.579V161.587C527.873 161.955 528.172 162.253 528.54 162.253C528.908 162.253 529.207 161.955 529.207 161.587V156.579C529.207 156.211 528.908 155.912 528.54 155.912C528.172 155.912 527.873 156.211 527.873 156.579Z" fill="#FFB987"/>
<path d="M531.044 158.416H526.036C525.668 158.416 525.369 158.715 525.369 159.083C525.369 159.451 525.668 159.749 526.036 159.749H531.044C531.412 159.749 531.711 159.451 531.711 159.083C531.711 158.715 531.412 158.416 531.044 158.416Z" fill="#FFB987"/>
<path d="M344.564 299.736C344.564 299.736 335.243 303.712 335.249 305.702C335.255 306.843 348.067 305.209 348.839 304.437C350.075 303.202 348.339 299.908 348.339 299.908L344.564 299.736Z" fill="#28387B"/>
<path d="M343.967 294.177L344.564 299.908C344.564 299.908 344.873 300.835 346.177 300.937C347.481 301.04 348.339 299.908 348.339 299.908L347.879 292.736" fill="#FFB987"/>
<path d="M360.244 162.744C363.635 176.404 362.376 183.343 357.409 193.648C354.4 228.297 352.297 262.811 348.249 296.595L343.967 296.84C334.239 263.947 325.288 214.773 326.429 169.825L360.244 162.744Z" fill="#28387B"/>
<path d="M357.821 167.559C358.891 170.299 359.26 173.36 359.26 176.337C359.26 176.741 359.253 177.145 359.24 177.545C359.081 182.644 356.993 187.312 355.616 192.26C353.783 198.868 353.645 205.423 353.148 212.131C352.369 222.645 351.571 233.16 350.771 243.673C349.464 260.82 348.144 277.967 346.816 295.111C346.776 295.62 346.737 296.129 346.697 296.639L347.363 296.691C347.401 296.181 347.441 295.672 347.481 295.163C348.809 278.017 350.128 260.872 351.435 243.724C352.236 233.211 353.033 222.696 353.812 212.18C354.309 205.447 354.452 198.941 356.259 192.439C357.611 187.555 359.735 182.836 359.907 177.567C359.92 177.16 359.927 176.749 359.927 176.337C359.927 173.305 359.552 170.164 358.443 167.316L357.821 167.559Z" fill="#2A5DAC"/>
<path d="M381.731 301.069C381.731 301.069 372.409 305.045 372.416 307.035C372.421 308.176 385.233 306.543 386.005 305.771C387.241 304.535 385.505 301.241 385.505 301.241L381.731 301.069Z" fill="#28387B"/>
<path d="M381.133 295.511L381.731 301.241C381.731 301.241 382.04 302.168 383.344 302.271C384.648 302.373 385.505 301.241 385.505 301.241L385.045 294.069" fill="#FFB987"/>
<path d="M391.24 161.587C395.527 174.993 394.731 182 390.457 192.611C389.747 227.384 387.355 263.693 385.551 297.672H381.148C369.265 265.495 356.536 215.816 354.701 170.891L391.24 161.587Z" fill="#28387B"/>
<path d="M388.809 167.271L388.868 167.416C389.136 168.12 390.243 171.321 390.243 176.285C390.241 181.079 389.212 187.517 385.389 194.951L385.357 195.012L385.352 195.081C384.381 210.527 383.884 297.664 383.884 297.669L384.551 297.673C384.551 297.669 384.559 296.312 384.573 293.899C384.681 277.012 385.171 208.583 386.017 195.124L385.685 195.103L385.981 195.255C389.855 187.725 390.909 181.175 390.909 176.285C390.909 170.499 389.436 167.04 389.423 167.009L388.809 167.271Z" fill="#2A5DAC"/>
<path d="M376.543 171.004C377.444 172.399 378.851 173.367 380.344 173.967C381.836 174.567 383.417 174.824 384.971 175.017C386.441 175.201 387.927 175.332 389.417 175.332C389.801 175.332 390.185 175.323 390.569 175.304L390.537 174.639C390.164 174.657 389.791 174.665 389.417 174.665C387.965 174.665 386.508 174.537 385.053 174.356C383.517 174.165 381.993 173.912 380.592 173.348C379.192 172.787 377.904 171.887 377.103 170.643L376.543 171.004Z" fill="#2A5DAC"/>
<path d="M377.207 173.248C378.852 174.74 380.931 175.643 383.051 176.132C385.172 176.621 387.343 176.719 389.484 176.743L389.492 176.076C387.365 176.052 385.243 175.955 383.201 175.483C381.161 175.012 379.189 174.147 377.655 172.755L377.207 173.248Z" fill="#2A5DAC"/>
<path d="M340.364 96.792C325.54 122.587 309.583 145.948 300.121 174.156L297.303 172.657C298.023 146.467 306.511 108.387 317.657 84.676" fill="#FFB987"/>
<path d="M333.12 69.8546C333.12 69.8546 328.531 71.1413 323.14 74.728C318.065 78.104 314.224 83.1253 311.615 88.6346C309.007 94.1426 307.571 100.14 306.652 106.165C306.652 106.165 312.859 109.268 319.969 110.156C327.08 111.045 334.647 110.156 334.647 110.156" fill="#DEF4FD"/>
<path d="M322.067 85.1013C320.489 112.999 321.692 141.697 322.4 168.836C322.4 168.836 332.128 171.424 355.764 171.424C379.311 171.424 394.731 164.247 394.731 164.247C390.168 136.356 386.54 102.135 375.367 79.176C375.367 79.176 362.76 65.5773 350.321 65.0186C347.82 64.9066 345.324 65.8213 342.94 66.9293C341.185 67.7453 333.12 69.7173 333.12 69.7173L322.067 85.1013Z" fill="#DEF4FD"/>
<path d="M321.603 87.5493C320.981 92.9613 320.984 109.497 320.983 109.507H321.649C321.649 109.504 321.649 108.473 321.66 106.837C321.688 101.937 321.805 91.6066 322.265 87.6253L321.603 87.5493Z" fill="#9EC3EA"/>
<path d="M345.809 180.929C347.332 180.76 348.811 180.679 350.249 180.679C358.528 180.689 365.521 183.321 371.741 187.669C381.053 194.179 388.441 204.707 394.207 215.427C397.095 220.781 399.587 226.171 401.763 231.105C403.941 236.041 405.799 240.515 407.459 244.101C412.085 254.104 419.376 261.839 428.18 267.703C441.401 276.504 457.997 281.248 475.045 283.879C492.096 286.5 509.635 286.979 524.748 286.98C533.733 286.979 541.863 286.809 548.472 286.809C565.621 286.804 579.201 288.931 588.235 291.909C592.747 293.387 596.113 295.097 598.136 296.671C599.149 297.452 599.816 298.189 600.175 298.759C600.539 299.337 600.604 299.693 600.607 299.948C600.604 300.144 600.572 300.332 600.421 300.636C600.203 301.081 599.647 301.78 598.557 302.555C597.477 303.329 595.896 304.164 593.819 304.949C592.097 305.601 591.231 307.525 591.883 309.247C592.535 310.968 594.459 311.836 596.18 311.184C599.479 309.926 602.069 308.493 604.016 306.693C604.985 305.792 605.795 304.784 606.372 303.643C606.951 302.507 607.277 301.229 607.273 299.948C607.276 298.224 606.697 296.58 605.797 295.176C605.007 293.939 603.975 292.843 602.752 291.827C600.605 290.056 597.855 288.513 594.497 287.119C589.463 285.036 583.053 283.309 575.344 282.083C567.637 280.857 558.636 280.143 548.472 280.143C541.753 280.143 533.652 280.313 524.748 280.313C504.799 280.319 480.805 279.441 459.931 274.019C449.493 271.313 439.856 267.479 431.879 262.156C423.895 256.824 417.571 250.06 413.508 241.3C411.411 236.775 408.803 230.323 405.531 223.24C400.608 212.608 394.195 200.503 385.327 190.86C380.889 186.043 375.819 181.836 369.984 178.821C364.155 175.805 357.551 174.008 350.249 174.012C348.56 174.012 346.836 174.108 345.075 174.303C343.245 174.505 341.927 176.153 342.129 177.983C342.332 179.813 343.98 181.132 345.809 180.929Z" fill="#E16C39"/>
<path d="M359.051 179.876C359.051 200.189 343.676 212.448 330.536 212.448H308.983V147.303H330.536C343.676 147.303 359.051 159.561 359.051 179.876Z" fill="#F8A51B"/>
<path d="M347.944 179.876C347.944 199.725 336.191 215.816 321.692 215.816H297.911V143.936H321.692C336.191 143.936 347.944 160.027 347.944 179.876Z" fill="#E16C39"/>
<path d="M347.943 179.605C347.924 175.975 347.511 172.472 346.76 169.173C348.887 166.179 351.039 163.201 353.212 160.24C355.305 163.299 356.959 166.849 357.963 170.853C354.948 173.761 351.6 177.189 347.943 179.605Z" fill="#F68515"/>
<path d="M340.312 182.495C340.183 182.495 340.055 182.471 339.928 182.413C339.168 182.065 340.027 181.131 340.028 180.591C339.525 181.08 338.879 181.42 338.189 181.553C340.993 177.391 343.853 173.265 346.76 169.173C347.511 172.472 347.924 175.975 347.943 179.605C346.648 180.46 345.315 181.188 343.943 181.721C343.98 181.421 344.032 181.021 344.276 180.464C343.731 181.003 343.035 181.937 342.289 182.112C342.191 182.081 342.092 182.069 341.995 182.069C341.712 182.069 341.428 182.175 341.147 182.281C340.865 182.388 340.587 182.495 340.312 182.495Z" fill="#ED5E1A"/>
<path d="M325.861 179.876C325.861 199.725 314.108 215.816 299.609 215.816C285.111 215.816 273.357 199.725 273.357 179.876C273.357 160.027 285.111 143.936 299.609 143.936C314.108 143.936 325.861 160.027 325.861 179.876Z" fill="#F9A47F"/>
<path d="M301.803 192.612C301.803 195.561 299.788 197.953 297.303 197.953C294.817 197.953 292.803 195.561 292.803 192.612C292.803 189.663 294.817 187.271 297.303 187.271C299.788 187.271 301.803 189.663 301.803 192.612Z" fill="#F86B1B"/>
<path d="M301.803 167.14C301.803 170.089 299.788 172.481 297.303 172.481C294.817 172.481 292.803 170.089 292.803 167.14C292.803 164.191 294.817 161.799 297.303 161.799C299.788 161.799 301.803 164.191 301.803 167.14Z" fill="#F86B1B"/>
<path d="M382.551 105.691C382.551 105.691 384.217 122.667 376.627 136.784C370.135 148.856 357.24 164.481 346.821 173.091L344.319 172.481C347.944 158.567 359.389 133.86 360.101 124.597C360.813 115.333 360.643 104.601 360.813 99.44" fill="#FFB987"/>
<path d="M350.321 65.0186C350.321 65.0186 364.293 65.9746 372.399 72.8226C383.971 82.6013 385.685 101.739 385.685 106.183C382.188 109.963 374.541 110.156 368.969 110.156C363.399 110.156 359.327 107.489 359.327 107.489L358.189 86.3787" fill="#DEF4FD"/>
<path d="M345.335 170.413C343.745 170.572 342.205 171.343 340.867 172.388C339.643 173.345 338.137 174.945 338.295 175.677C338.46 176.448 340.467 174.967 340.711 175.265C340.955 175.564 337.276 181.119 337.969 181.535C338.661 181.952 341.791 176.919 341.791 176.919C341.791 176.919 338.752 182.295 339.928 182.413C340.911 182.512 343.608 177.423 343.608 177.423C343.608 177.423 341.327 181.972 342.108 182.144C342.888 182.315 345.004 177.784 345.004 177.784C345.004 177.784 343.283 181.656 343.943 181.721C344.276 181.755 345.975 179.829 346.684 177.496C347.383 175.201 348.199 173.209 347.569 171.419" fill="#FFB987"/>
<path d="M359.577 107.831H360.244V88.5973H359.577V107.831Z" fill="#9EC3EA"/>
<path d="M321.365 47.276C321.292 48.1093 321.259 48.9467 321.265 49.7827C321.279 51.596 321.512 53.496 322.556 54.9773C323.273 55.996 324.353 56.7534 325.555 57.0814C326.405 57.3134 327.519 57.2147 327.885 56.4133C328.015 56.1293 328.021 55.808 328.02 55.496C328.009 52.3947 327.405 49.2973 326.249 46.42" fill="#28387B"/>
<path d="M342.448 49.024C341.251 44.352 337.48 37.808 331.345 39.1213C327.493 39.9466 323.945 42.5707 322.812 46.2453C321.459 50.6333 323.653 55.7373 326.283 59.3173C327.253 60.64 328.401 61.8973 329.9 62.6733C333.452 64.5093 338.245 63.004 340.656 59.9453C343.067 56.8867 343.395 52.7226 342.448 49.024Z" fill="#FFB987"/>
<path d="M333.844 61.2413L335.849 68.5667L333.12 69.8546C333.12 69.8546 335.203 72.6213 339.319 72.028C347.689 70.82 350.321 65.0186 350.321 65.0186L345.596 64.5253L340.364 55.608" fill="#FFB987"/>
<path d="M346.532 43.9266C345.945 40.7146 343.657 37.9893 340.868 36.296C335.913 33.2866 328.861 33.0453 324.451 37.1906C321.939 39.5506 317.419 47.9187 322.82 49.5787C324.507 50.096 326.243 49.0706 327.711 48.0893C329.203 47.092 330.696 46.0933 332.189 45.0946C332.725 44.7373 333.297 44.3667 333.94 44.3413C334.996 44.2987 335.872 45.2147 336.251 46.2C336.628 47.1867 336.656 48.2693 336.901 49.296C337.075 50.0226 337.395 50.768 338.023 51.1707C338.652 51.5733 339.645 51.4547 339.964 50.78C340.184 50.3107 340.028 49.7613 340.019 49.2427C340.009 48.724 340.301 48.0893 340.82 48.112C341.004 48.12 341.173 48.216 341.32 48.3293C342.624 49.344 342.2 51.3787 342.633 52.9733C342.691 53.1827 342.253 56.4093 342.399 56.572C346.561 55.608 346.953 46.228 346.532 43.9266Z" fill="#E16C39"/>
<path d="M340.375 48.5213C340.281 47.932 340.844 47.3866 341.439 47.3226C342.033 47.2586 342.611 47.56 343.069 47.9427C343.851 48.5947 344.416 49.5533 344.433 50.5707C344.445 51.368 344.128 52.1413 343.691 52.8093C343.393 53.264 343.011 53.7013 342.493 53.864C341.831 54.0733 341.088 53.7706 340.613 53.2653" fill="#F8A479"/>
<path d="M191.9 299.533C191.9 299.533 200.892 301.032 201.14 303.007C201.281 304.138 188.537 305.488 187.672 304.821C186.288 303.755 187.985 299.764 187.985 299.764L191.9 299.533Z" fill="#28387B"/>
<path d="M191.185 294.02L191.923 299.703C191.923 299.703 191.735 300.661 190.455 300.931C189.175 301.202 188.179 300.188 188.179 300.188L187.121 293.093" fill="#F8A479"/>
<path d="M157.575 164.499C155.968 178.481 155.88 185.201 162.129 194.783C165.091 208.313 169.637 222.163 173.075 236.015C171.595 252.556 181.965 278.905 187.544 297.724L191.576 297.035C196.997 263.165 199 211.223 194.135 165.755" fill="#28387B"/>
<path d="M159.88 183.544C159.88 183.547 160.121 184.312 160.544 185.66C162.024 190.377 165.725 202.209 169.056 213.152C170.721 218.623 172.293 223.872 173.449 227.897C174.027 229.909 174.501 231.616 174.829 232.889C174.993 233.525 175.121 234.053 175.207 234.453C175.293 234.849 175.336 235.137 175.333 235.223C175.333 237.912 175.756 247.071 176.444 253.039C177.079 258.532 179.861 269.272 182.485 278.665C185.111 288.056 187.577 296.081 187.579 296.084L188.216 295.888C188.213 295.883 187.6 293.884 186.655 290.705C183.823 281.179 178.037 261.063 177.105 252.961C176.423 247.041 176 237.865 176 235.223C175.997 234.988 175.932 234.647 175.819 234.128C174.96 230.3 171.14 217.624 167.527 205.877C163.915 194.136 160.516 183.344 160.516 183.344L159.88 183.544Z" fill="#2A5DAC"/>
<path d="M187.417 298.48L186.792 296.027L191.992 295.833L192.061 298.099L187.417 298.48Z" fill="#2A5DAC"/>
<path d="M121.977 299.812C121.977 299.812 129.012 304.895 128.389 306.684C128.031 307.709 116.588 303.469 116.132 302.535C115.403 301.04 118.54 298.352 118.54 298.352L121.977 299.812Z" fill="#28387B"/>
<path d="M123.7 294.807L121.924 299.967C121.924 299.967 121.359 300.705 120.152 300.393C118.947 300.083 118.525 298.797 118.525 298.797L120.624 292.297" fill="#F8A479"/>
<path d="M127.356 161.587C123.069 174.993 123.865 182 128.14 192.611C128.399 205.312 128.527 218.164 128.673 231.017C119.624 253.667 118.191 273.991 119.336 295.559L123.7 297.176C123.7 297.176 149.683 251.889 154.461 233.987C159.943 213.451 163.053 191.493 163.896 170.891" fill="#28387B"/>
<path d="M128.112 164.391C128.105 164.413 126.371 169.491 126.369 176.481C126.369 181.064 127.116 186.472 129.597 191.807L129.9 191.667H129.567C129.567 194.808 131.052 216.869 131.052 226.843C131.052 228.809 130.991 230.313 130.859 231.053C130.673 232.129 129.505 235.467 128.04 239.812C126.572 244.165 124.8 249.568 123.377 254.904C121.796 260.845 120.849 270.735 120.289 279.161C119.731 287.585 119.565 294.532 119.565 294.535L120.232 294.551C120.232 294.547 120.273 292.819 120.384 290.032C120.716 281.681 121.684 263.84 124.021 255.076C125.437 249.764 127.205 244.375 128.672 240.024C130.139 235.665 131.297 232.387 131.516 231.169C131.663 230.331 131.717 228.828 131.719 226.843C131.719 216.836 130.232 194.739 130.233 191.667V191.593L130.201 191.527C127.772 186.301 127.036 180.992 127.036 176.481C127.036 173.041 127.464 170.067 127.892 167.956C128.105 166.9 128.32 166.06 128.48 165.485C128.639 164.911 128.744 164.608 128.743 164.607L128.112 164.391Z" fill="#2A5DAC"/>
<path d="M118.525 295.555L119.216 292.641L124.801 295.237L123.7 297.733L118.525 295.555Z" fill="#2A5DAC"/>
<path d="M200.029 58.0453L196.529 55.0573C196.529 55.0573 196.529 49.828 196.529 48.8666C196.529 47.9066 195.228 42.144 194.053 42.144C192.88 42.144 192.613 40.7026 192.025 41.2893C191.439 41.8773 192.507 48.3866 192.025 48.8666C191.545 49.3466 190.924 45.7746 190.479 46.2186C190.035 46.6626 189.997 49.2826 189.997 50.6226C189.997 51.9613 191.071 54.4333 192.132 55.4946C193.195 56.556 197.896 61.6373 197.896 61.6373L200.029 58.0453Z" fill="#FBA668"/>
<path d="M198.277 56.0627L195.351 59.3933C195.351 59.3933 206.909 74.6933 210.572 79.816C207.232 78.6467 202.439 75.716 199.667 73.8987C194.229 70.3333 188.777 68.4427 185.007 68.4427C177 68.4427 181.191 94.8347 190.479 98.6973C208.099 101.347 227.848 99.6707 230.872 93.4773C235.355 84.2987 209.528 62.676 198.277 56.0627Z" fill="#DEF4FD"/>
<path d="M210.257 79.9293C210.263 79.9413 210.819 81.496 211.876 83.3133C212.935 85.1293 214.485 87.2187 216.543 88.2787L216.848 87.6853C214.987 86.736 213.475 84.7427 212.452 82.9787C211.94 82.0973 211.547 81.2747 211.283 80.676C211.151 80.376 211.051 80.1306 210.984 79.9626C210.917 79.7946 210.885 79.704 210.885 79.704L210.257 79.9293Z" fill="#9EC3EA"/>
<path d="M144.551 75.428C123.547 99.0173 123.865 139.576 123.865 167.144C123.865 167.144 139.285 177.671 162.832 177.671C186.468 177.671 196.196 171.867 196.196 171.867C196.904 143.936 191.923 131.889 196.529 85.688C196.529 85.688 189.013 68.4427 185.007 68.4427C181 68.4427 165.327 66.8973 165.327 66.8973L144.551 75.428Z" fill="#DEF4FD"/>
<path d="M195.7 99.336C195.7 99.3346 195.729 98.8386 195.805 98.0573C195.917 96.884 196.132 95.0773 196.497 93.3933C196.856 91.712 197.403 90.144 198.04 89.524L197.568 89.0533C197.008 89.62 196.609 90.5266 196.279 91.5826C195.3 94.7426 195.037 99.284 195.035 99.2973L195.7 99.336Z" fill="#9EC3EA"/>
<path d="M172.271 49.2107C173.052 44.4507 176.443 37.652 182.669 38.4213C186.58 38.904 189.608 41.6053 191.796 44.7667C193.673 47.4787 192.965 50.0733 190.293 56.94C189.443 58.3427 187.607 60.8506 186.181 61.7546C182.805 63.896 177.897 62.8186 175.228 59.984C172.557 57.1493 171.653 52.9787 172.271 49.2107Z" fill="#FFB987"/>
<path d="M173.103 48.6306C174 48.496 173.109 47.9133 173.505 48.728C173.759 49.2506 173.833 49.4026 174.341 49.572C174.839 49.7386 174.849 50.1946 175.265 50.504C175.913 50.9866 176.463 50.3306 176.736 49.7746C177.243 48.7426 177.227 47.5 177.108 46.384C177.015 45.5066 176.721 44.1186 177.581 43.5093C178.284 43.0106 179.837 43.7333 180.561 43.9426C181.679 44.2666 182.784 44.628 183.896 44.9666C186.579 45.7826 189.411 46.5 192.233 46.12C194.699 45.788 197.247 44.504 198.428 42.2186C199.844 39.4786 197.013 35.8986 194.128 35.8946C193.373 35.8946 192.656 36.2 191.917 36.352C191.644 36.408 191.357 36.444 191.089 36.364C190.46 36.1786 190.183 35.472 189.828 34.92C188.759 33.2573 186.932 32.7466 185.048 32.9533C182.912 33.188 181.088 34.2133 179.055 34.768C177.977 35.0626 177.044 34.784 175.968 34.8186C174.856 34.8546 173.719 35.5826 173.228 36.608C172.356 35.6946 170.411 37.932 169.927 38.5213C167.799 41.112 167.125 44.844 167.067 48.1173C167.016 50.9813 167.493 55.148 170.633 56.3C171.961 56.7866 172.797 57.0466 172.853 55.8293C172.271 54.5666 172.136 52.0626 172.015 51.0106C171.895 49.9586 172.205 48.7026 173.181 48.292" fill="#E16C39"/>
<path d="M183.327 60.58L182.643 67.7733L185.007 68.4427C185.007 68.4427 183.757 71.672 179.635 72.2213C171.251 73.3386 165.327 66.8973 165.327 66.8973L168.125 66.356L172.361 53" fill="#FFB987"/>
<path d="M174.503 48.58C174.544 47.9827 173.936 47.4893 173.337 47.4787C172.74 47.468 172.191 47.8187 171.768 48.24C169.423 50.5747 172.369 56.264 174.683 53.3253" fill="#FFB987"/>
<path d="M190.307 56.8147C189.931 57.696 188.444 58.048 187.629 58.1373C183.685 58.5733 180.413 56.024 176.637 55.5573C175.889 55.4653 175.037 55.404 174.479 55.9107C173.951 56.3907 173.901 57.1893 173.888 57.904C173.872 58.7853 173.856 59.6707 173.935 60.5493C174.003 61.3093 174.149 62.0813 174.543 62.736C176.247 65.5747 181.936 66.0533 184.82 65.8773C185.985 65.8067 187.195 65.5826 188.109 64.892C189.408 63.9133 189.689 62.2013 190.175 60.696C190.772 58.84 190.307 56.8147 190.307 56.8147Z" fill="#E16C39"/>
<path d="M187.508 59.9133C187.384 59.8307 187.239 59.7613 187.089 59.7613C185.248 59.7613 184.227 59.32 182.789 59.208C182.544 59.1893 182.292 59.1733 182.059 59.244C181.547 59.4 181.253 59.9307 181.149 60.4427C181.044 60.96 181.304 61.36 181.775 61.5933C182.628 62.0173 183.592 62.1693 184.536 62.196C185.364 62.22 186.441 62.2906 187.123 61.7333C187.513 61.4133 188.087 60.3293 187.508 59.9133Z" fill="#FFB987"/>
<path d="M170.34 160.701C168.161 160.588 166.021 160.531 163.919 160.531C153.087 160.529 143.255 162.041 134.324 165.007C120.921 169.448 109.595 177.176 99.9866 187.681C90.3706 198.189 82.4319 211.447 75.5453 227.1C63.7799 253.825 49.9493 268.24 37.308 276.083C24.656 283.915 13.0626 285.252 5.41728 285.26C4.97328 285.26 4.54261 285.256 4.12528 285.247C2.28394 285.211 0.763945 286.675 0.727945 288.515C0.691945 290.356 2.15461 291.877 3.99461 291.913C4.45195 291.921 4.92662 291.927 5.41728 291.927C13.8493 291.935 26.8826 290.395 40.8186 281.749C54.7653 273.115 69.4866 257.455 81.6479 229.784C90.5613 209.512 101.116 193.86 114.336 183.335C120.951 178.065 128.239 174.052 136.424 171.333C144.608 168.617 153.703 167.199 163.919 167.197C165.9 167.197 167.924 167.251 169.992 167.359C171.831 167.455 173.399 166.043 173.495 164.204C173.591 162.365 172.179 160.797 170.34 160.701Z" fill="#E16C39"/>
<path d="M152.561 167.767C154.249 188.011 170.589 198.948 183.684 197.856L205.163 196.064L199.747 131.145L178.269 132.936C165.175 134.029 150.872 147.523 152.561 167.767Z" fill="#F8A51B"/>
<path d="M163.629 166.844C165.279 186.624 178.329 201.681 192.777 200.476L216.476 198.5L210.501 126.869L186.803 128.845C172.355 130.051 161.979 147.063 163.629 166.844Z" fill="#E16C39"/>
<path d="M185.636 165.008C187.285 184.788 200.336 199.845 214.784 198.641C229.232 197.436 239.607 180.424 237.957 160.644C236.307 140.863 223.257 125.805 208.809 127.011C194.361 128.215 183.985 145.228 185.636 165.008Z" fill="#F9A47F"/>
<path d="M210.668 175.7C210.913 178.639 213.12 180.855 215.597 180.648C218.075 180.441 219.884 177.891 219.639 174.952C219.393 172.012 217.187 169.797 214.709 170.004C212.232 170.209 210.424 172.76 210.668 175.7Z" fill="#F86B1B"/>
<path d="M208.551 150.316C208.796 153.256 211.004 155.471 213.48 155.264C215.957 155.057 217.767 152.507 217.521 149.568C217.276 146.628 215.069 144.413 212.592 144.62C210.115 144.827 208.307 147.376 208.551 150.316Z" fill="#F86B1B"/>
<path d="M213.78 153.643C216.477 153.419 247.277 150.849 247.277 150.849C249.32 150.679 250.837 148.868 250.665 146.803C250.493 144.739 248.697 143.204 246.655 143.375C246.655 143.375 215.72 145.955 213.156 146.168C210.593 146.383 211.083 153.868 213.78 153.643Z" fill="#E5EBF0"/>
<path d="M215.897 179.027C218.595 178.801 249.395 176.233 249.395 176.233C251.437 176.063 252.955 174.251 252.783 172.187C252.611 170.123 250.815 168.588 248.772 168.759C248.772 168.759 217.837 171.339 215.275 171.552C212.711 171.767 213.2 179.252 215.897 179.027Z" fill="#E5EBF0"/>
<path d="M133.363 105.691C133.363 105.691 131.696 122.667 139.287 136.784C145.777 148.856 158.673 164.481 169.092 173.091L171.595 172.481C167.969 158.567 156.523 133.86 155.811 124.597C155.099 115.333 155.271 104.601 155.099 99.44" fill="#FFB987"/>
<path d="M165.327 66.8973C165.327 66.8973 150.604 67.7467 142.137 74.1427C127.5 85.2013 130.372 114.896 134.633 129.416C138.895 143.936 159.395 165.72 166.016 170.413C167.101 170.413 170.289 170.144 170.176 167.647C166.513 156.327 156.073 126.549 156.073 126.549L157.723 86.3787" fill="#DEF4FD"/>
<path d="M170.579 170.413C172.167 170.572 173.708 171.343 175.047 172.388C176.271 173.345 177.776 174.945 177.619 175.677C177.452 176.448 175.447 174.967 175.203 175.265C174.959 175.564 178.636 181.119 177.944 181.535C177.251 181.952 174.123 176.919 174.123 176.919C174.123 176.919 177.161 182.295 175.985 182.413C175.001 182.512 172.305 177.423 172.305 177.423C172.305 177.423 174.585 181.972 173.805 182.144C173.024 182.315 170.909 177.784 170.909 177.784C170.909 177.784 172.631 181.656 171.969 181.721C171.637 181.755 169.939 179.829 169.228 177.496C168.529 175.201 167.713 173.209 168.344 171.419" fill="#FFB987"/>
<path d="M160.515 138.271C158.168 131.515 156.388 126.439 156.388 126.439L156.073 126.549L156.405 126.579L159.499 92.864L158.835 92.8026L155.736 126.591L155.76 126.659C155.76 126.663 156.204 127.928 156.943 130.041C157.68 132.155 158.712 135.112 159.885 138.489L160.515 138.271Z" fill="#9EC3EA"/>
<path d="M130.939 101.02C130.936 101.347 130.935 101.677 130.935 102.009C130.936 110.995 132.04 121.759 134.313 129.511C136.393 136.584 142.225 145.267 148.456 152.925L148.973 152.505C142.769 144.887 136.975 136.225 134.952 129.323C132.707 121.672 131.6 110.939 131.601 102.009C131.601 101.68 131.603 101.351 131.605 101.025L130.939 101.02Z" fill="#9EC3EA"/>
<path d="M446.144 51.3653L448.509 49.7466C448.509 49.7466 449.607 44.5973 450.212 43.6733C450.853 42.6933 452.072 40.6706 453.452 39.7373C454.029 39.348 456.664 37.8573 457.329 38.5226C457.656 38.8493 456.545 41.832 456.035 42.3413C455.525 42.852 454.025 45.1359 454.259 45.8506C454.493 46.5653 455.74 45.0013 456.035 44.7053C456.331 44.4106 456.728 44.0439 456.867 44.4253C457.097 45.0613 455.767 48.6493 454.724 49.6906C453.683 50.7319 451.996 51.716 450.82 51.716L447.145 54.9626" fill="#FFB987"/>
<path d="M474.656 34.408C478.571 36.7146 480.993 41.0586 481.932 45.408C482.1 46.1906 482.243 47.0293 482.783 47.6186C483.212 48.088 483.829 48.3266 484.405 48.5946C487.649 50.0973 490.135 53.0413 491.275 56.408C491.763 57.8466 491.381 59.8786 491.948 61.1053C492.643 62.6106 495.199 62.952 496.573 63.408C500.688 64.7706 503.712 68.9147 503.757 73.248C503.801 77.5813 500.863 81.7853 496.777 83.2333C497.876 84.772 498.032 86.848 497.523 88.6693C497.013 90.4906 495.907 92.0906 494.653 93.508C489.473 99.368 481.487 102.5 473.672 102.163C471.421 102.067 469.163 101.695 467.076 100.843C464.713 99.8773 462.639 98.328 460.647 96.732C458.245 94.808 455.848 92.7013 454.553 89.9106C453.259 87.1186 453.344 83.4653 455.539 81.3066C453.004 81.8346 450.299 80.4586 448.872 78.2973C447.447 76.1373 447.188 73.348 447.76 70.8226C448.331 68.2986 449.664 66.0053 451.213 63.932C452.303 62.476 453.553 61.0013 453.784 59.1973C454.169 56.188 452.489 53.5 452.052 50.5066C451.373 45.8493 451.584 41.8466 455.572 39.3706C456.851 36.0533 458.4 33.4946 462.072 32.5173C466.427 31.36 470.759 32.1106 474.656 34.408Z" fill="#E16C39"/>
<path d="M465.065 69.796C451.765 66.3133 436.54 71.8133 433.148 71.7973C437.795 67.152 446.324 56.808 449.271 53.2333C449.271 50.7773 447.78 50.092 447.78 50.092C447.78 50.092 411.299 68.956 414.964 81.2747C418.792 94.1333 454.533 87.8227 457.389 91.516" fill="#BFEAFB"/>
<path d="M467.672 189.521C467.632 190.609 462.869 214.031 462.519 216.544C461.499 223.863 465.365 231.205 464.989 242.552C464.532 256.347 458.664 293.423 457.919 295.067C457.173 296.712 453.596 295.204 453.596 295.204C453.596 295.204 443.284 245.467 442.703 225.113C442.223 208.349 444.659 172.068 444.659 172.068" fill="#FFB987"/>
<path d="M458.284 295.703C458.284 295.703 458.884 296.963 458.855 297.531C458.779 299.076 458.729 300.131 458.729 300.131L458.059 300.175L457.825 298.915C457.825 298.915 456.041 299.227 454.227 300.42C453.347 300.998 448.927 300.947 448.245 300.586C447.483 300.184 447.701 299.459 447.956 299.163C448.211 298.867 452.993 296.777 452.993 296.777" fill="#28387B"/>
<path d="M453.596 295.204C453.209 296.139 449.431 298.197 449.78 298.473C450.127 298.751 452.324 298.763 454.761 297.952C456.981 297.213 458.237 296.385 458.309 295.804L457.884 294.241" fill="#F8A479"/>
<path d="M500.771 190.495C500.764 191.584 496.716 215.139 496.443 217.663C495.647 225.008 499.735 232.229 499.705 243.583C499.668 257.384 494.933 294.623 494.239 296.289C493.544 297.955 489.923 296.557 489.923 296.557C489.923 296.557 478.1 247.157 476.897 226.832C475.907 210.091 477.236 173.752 477.236 173.752" fill="#FFB987"/>
<path d="M494.624 296.913C494.624 296.913 495.26 298.153 495.249 298.723C495.22 300.271 495.203 301.325 495.203 301.325L494.533 301.391L494.263 300.137C494.263 300.137 492.489 300.504 490.711 301.752C489.849 302.357 485.429 302.44 484.737 302.101C483.963 301.721 484.16 300.991 484.405 300.686C484.652 300.383 489.368 298.149 489.368 298.149" fill="#28387B"/>
<path d="M489.923 296.557C489.564 297.504 485.851 299.676 486.207 299.941C486.563 300.208 488.759 300.153 491.169 299.269C493.367 298.463 494.597 297.597 494.651 297.013L494.179 295.464" fill="#F8A479"/>
<path d="M488.743 130.257C488.743 130.257 499.312 137.18 503.34 153.788C508.772 176.184 500.771 220.036 500.771 220.036C500.771 220.036 484.216 224.875 466.211 224.723C448.205 224.569 437.537 218.487 437.503 217.396C437.468 216.307 434.817 183.108 438.476 160.583C442.583 135.303 453.044 128.488 453.044 128.488" fill="#3653AC"/>
<path d="M474.413 69.372C476.052 68.7626 480.303 70.252 488.261 73.3013C491.757 77.084 493.289 85.3733 494.044 92.7106C491.98 110.569 489.675 120.32 490.785 126.347C491.049 127.775 492.357 128.856 492.149 130.847C491.717 134.965 484.973 135.591 472.172 137.044C459.369 138.497 447.845 132.683 448.537 130.867C449.229 129.049 451.412 127.459 451.757 126.256C452.104 125.052 453.149 109.753 451.765 107.936C450.381 106.119 446.812 100.895 446.812 95.808C446.812 88.6453 450.755 85.432 453.336 81.496C457.636 74.9373 460.901 70.8253 465.065 69.796C471.729 68.1506 474.413 69.372 474.413 69.372Z" fill="#BFEAFB"/>
<path d="M452.54 78.4746C452.54 78.4746 452.553 78.568 452.569 78.7493C452.585 78.932 452.6 79.1959 452.6 79.5199C452.601 80.6093 452.419 82.36 451.481 83.888C451.388 84.044 451.115 84.3826 450.768 84.796C449.721 86.0586 447.965 88.0586 447.487 89.6026L448.124 89.796C448.376 88.9466 449.228 87.736 450.08 86.676C450.505 86.144 450.929 85.6426 451.28 85.224C451.632 84.8013 451.903 84.4733 452.051 84.236C453.083 82.5453 453.265 80.6799 453.267 79.5199C453.267 78.8293 453.2 78.3866 453.199 78.3746L452.54 78.4746Z" fill="#7CB1E3"/>
<path d="M471.351 60.6559C474.845 57.1853 475.397 50.5986 473.809 46.148C472.02 41.1373 464.881 37.3826 459.965 40.5213C450.315 46.6826 460.107 71.8226 471.351 60.6559Z" fill="#FFB987"/>
<path d="M464.699 60.0426L464.88 70.76C464.88 70.76 464.479 73.1426 468.669 73.292C474.413 73.496 474.413 69.372 474.413 69.372L471.091 58.3293" fill="#FFB987"/>
<path d="M469.044 35.7893C467.863 35.0093 466.597 34.976 465.379 35.7C464.631 36.144 464.108 36.8773 463.313 37.2306C462.749 37.4826 462.079 37.524 461.485 37.6853C458.7 38.44 456.06 40.5666 454.885 43.2213C453.705 45.8906 454.083 50.232 456.292 52.1387C456.196 50.0733 456.816 47.1053 457.917 45.3573C458.495 44.4413 459.407 43.5373 460.483 43.6586C461.692 43.7946 462.349 45.088 463.221 45.9373C464.543 47.2227 466.44 47.484 468.185 47.744C470.16 48.0387 471.684 48.3866 472.657 50.3253C473.08 51.168 473.311 52.0933 473.537 53.008C473.807 54.0947 474.076 55.1893 474.14 56.308C474.18 57.004 474.141 57.7173 474.36 58.38C474.795 59.7013 476.14 60.5 477.459 60.9453C478.471 61.2867 480.177 61.604 480.813 60.456C481.344 59.496 481.803 58.1466 481.984 57.0693C482.591 53.4693 481.449 49.74 479.508 46.648C477.377 43.256 474.343 40.984 471.605 38.1613C470.767 37.2973 469.94 36.3813 469.044 35.7893Z" fill="#DB6532"/>
<path d="M471.735 52.2853C471.947 51.4666 472.551 50.6333 473.393 50.5053C476.121 50.092 475.708 54.1666 474.653 55.5986C474.04 56.4333 472.452 57.524 471.735 55.208" fill="#FFB987"/>
<path d="M500.685 135.729L499.401 138.475C499.401 138.475 494.557 139.627 494.044 140.48C493.232 141.829 492.015 143.693 492.015 144.753C492.015 145.813 492.116 150.465 493.444 150.465C494.277 150.465 496.229 146.671 496.631 146.14C497.58 144.887 501.412 143.977 501.412 140.676L503.757 135.729" fill="#F8A479"/>
<path d="M474.413 69.2306C474.413 69.2306 485.719 66.3533 494.552 71.928C501.417 76.26 519.081 97.8133 519.084 110.157C519.087 118.48 502.563 139.095 502.563 139.095L499.819 137.133C499.819 137.133 501.417 120.933 506.22 112.004C502.679 108.461 488.868 97.4613 485.399 93.9933" fill="#BFEAFB"/>
<path d="M483.381 93.1027C485.865 95.308 492.367 100.54 492.369 100.543L492.787 100.023C492.783 100.02 491.161 98.7147 489.228 97.132C487.295 95.5507 485.051 93.6933 483.824 92.604L483.381 93.1027Z" fill="#7CB1E3"/>
</svg>
