<svg width="292" height="51" viewBox="0 0 292 51" fill="none" xmlns="http://www.w3.org/2000/svg">
<g clip-path="url(#clip0_202_2722)">
<path d="M41.8717 9.63966V1.75698C41.8717 0.759777 41.0573 0 40.0991 0H11.3542C5.07826 0 0 5.03352 0 11.2542V30.2486C0 36.4693 5.07826 41.5028 11.3542 41.5028H40.0991C41.1052 41.5028 41.8717 40.6955 41.8717 39.7458C41.8717 38.7961 41.1052 37.9888 40.0991 37.9888H11.3542C7.04249 37.9888 3.5452 34.5223 3.5452 30.2486C3.5452 25.9749 7.04249 22.5084 11.3542 22.5084H40.0991C41.1052 22.5084 41.8717 21.7011 41.8717 20.7514V13.2486C45.3211 14.0559 47.9081 17.095 47.9081 20.7514V31.5782C45.8481 29.6788 43.1173 28.4916 40.0991 28.4916H11.3542C10.3482 28.4916 9.58162 29.2989 9.58162 30.2486C9.58162 31.1983 10.3961 32.0056 11.3542 32.0056H40.0991C44.4108 32.0056 47.9081 35.4721 47.9081 39.7458C47.9081 44.0196 44.4108 47.486 40.0991 47.486H11.3542C10.3482 47.486 9.58162 48.2933 9.58162 49.243C9.58162 50.1927 10.3961 51 11.3542 51H40.0991C46.3751 51 51.4533 45.9665 51.4533 39.7458V20.7514C51.4533 15.148 47.3332 10.4944 41.8717 9.63966ZM38.3265 18.9944H11.3542C8.33601 18.9944 5.60525 20.1816 3.5452 22.081V11.2542C3.5452 6.98045 7.04249 3.51397 11.3542 3.51397H38.3265V18.9944Z" fill="#E16C39"/>
<path d="M104.152 10.2095C103.769 10.2095 103.434 10.3045 103.098 10.4944C102.763 10.6843 102.523 10.9693 102.428 11.3492L96.5828 28.6341L91.6961 16.4776C91.5524 16.1452 91.3129 15.8603 91.0254 15.6229C90.738 15.433 90.4026 15.338 90.0194 15.338C89.6361 15.338 89.3007 15.3855 89.0133 15.6229C88.7258 15.8128 88.4863 16.0978 88.2947 16.4776L83.2164 28.7765L77.3237 11.3966C77.2279 11.0168 76.9884 10.7318 76.653 10.5419C76.3176 10.3519 75.9823 10.257 75.599 10.257C75.1678 10.257 74.6888 10.4469 74.2576 10.7793C73.8264 11.1117 73.6348 11.5866 73.6348 12.1564C73.6348 12.2989 73.6827 12.5363 73.7306 12.7737L81.0605 34C81.1564 34.3324 81.3959 34.6173 81.6833 34.8073C81.9708 34.9972 82.3061 35.0922 82.5936 35.1397C82.929 35.1397 83.3122 35.0447 83.5997 34.8547C83.935 34.6648 84.1746 34.3799 84.3662 34L89.7798 21.3687L95.2413 34C95.3851 34.3799 95.6725 34.6648 96.0079 34.8547C96.3432 35.0447 96.6786 35.1397 97.0139 35.1397C97.3493 35.1397 97.6847 34.9972 97.9721 34.8073C98.2596 34.6173 98.4991 34.3324 98.5949 34L105.925 12.7737C105.973 12.5363 106.021 12.3464 106.021 12.1564C106.021 11.5866 105.829 11.1117 105.398 10.7793C105.063 10.3519 104.631 10.2095 104.152 10.2095Z" fill="#4C4C4C"/>
<path d="M123.268 16.3352C122.788 16.3352 122.357 16.5251 122.022 16.8575C121.687 17.1899 121.495 17.6173 121.495 18.1397V27.6844C121.495 28.5866 121.303 29.3464 120.92 30.0587C120.537 30.7235 120.01 31.2458 119.339 31.6257C118.668 32.0056 117.902 32.1955 116.992 32.1955C115.65 32.1955 114.596 31.8156 113.926 31.1033C113.255 30.3911 112.872 29.2514 112.872 27.6844V18.1397C112.872 17.6173 112.68 17.1899 112.345 16.8575C112.009 16.5251 111.578 16.3352 111.099 16.3352C110.572 16.3352 110.141 16.5251 109.805 16.8575C109.47 17.1899 109.326 17.6173 109.326 18.1397V28.6341C109.326 29.9637 109.566 31.1033 110.093 32.148C110.572 33.1927 111.291 33.9525 112.249 34.5698C113.207 35.1397 114.309 35.4246 115.602 35.4246C116.608 35.4246 117.567 35.2821 118.381 34.9972C119.243 34.7123 119.962 34.3324 120.585 33.81C120.92 33.5251 121.255 33.1927 121.495 32.8128V33.4776C121.495 34.7598 121.303 35.8045 120.872 36.6117C120.441 37.419 119.866 37.9888 119.052 38.3687C118.237 38.7486 117.279 38.9385 116.081 38.9385C115.219 38.9385 114.452 38.7961 113.782 38.5587C113.111 38.3212 112.584 38.0838 112.153 37.9413C111.722 37.7989 111.291 37.7989 110.907 37.9888C110.524 38.1788 110.237 38.5587 110.045 39.1285C109.901 39.5559 109.901 39.9832 110.141 40.3631C110.38 40.743 110.764 41.0754 111.338 41.3128C111.865 41.5978 112.584 41.8352 113.446 41.9776C114.309 42.1201 115.171 42.2151 116.033 42.2151C117.71 42.2151 119.243 41.9302 120.585 41.3128C121.926 40.6955 122.98 39.7458 123.795 38.4637C124.609 37.1816 124.992 35.4721 124.992 33.4302V18.2346C124.992 17.7123 124.849 17.2849 124.513 16.9525C124.226 16.4776 123.795 16.3352 123.268 16.3352Z" fill="#4C4C4C"/>
<path d="M155.414 17.1899C154.504 16.4777 153.258 16.1452 151.581 16.1452C150.575 16.1452 149.665 16.3352 148.755 16.7626C147.892 17.1899 147.126 17.7123 146.503 18.3296C145.928 18.8994 145.497 19.4693 145.162 20.0391C144.826 18.9944 144.251 18.1397 143.533 17.4274C142.575 16.5726 141.233 16.1452 139.461 16.1452C138.646 16.1452 137.832 16.2877 137.161 16.5726C136.442 16.8575 135.82 17.2374 135.197 17.6648C134.622 18.0922 134.143 18.6145 133.759 19.1369C133.712 19.2318 133.664 19.2793 133.616 19.3743V18.2821C133.616 17.7598 133.424 17.3324 133.089 17C132.753 16.6676 132.322 16.4777 131.843 16.4777C131.316 16.4777 130.885 16.6676 130.55 17C130.214 17.3324 130.071 17.7598 130.071 18.2821V33.2402C130.071 33.7626 130.214 34.1899 130.55 34.5223C130.885 34.8547 131.316 35.0447 131.843 35.0447C132.322 35.0447 132.753 34.8547 133.089 34.5223C133.424 34.1899 133.616 33.7626 133.616 33.2402V23.8855C133.616 23.0782 133.807 22.3184 134.191 21.6061C134.574 20.9413 135.149 20.3715 135.867 19.9916C136.586 19.6117 137.4 19.3743 138.311 19.3743C139.269 19.3743 140.035 19.5642 140.61 19.9916C141.137 20.3715 141.521 20.9413 141.76 21.6061C142 22.2709 142.095 23.0307 142.095 23.8855V33.2402C142.095 33.7626 142.239 34.1899 142.575 34.5223C142.91 34.8547 143.341 35.0447 143.868 35.0447C144.395 35.0447 144.826 34.8547 145.162 34.5223C145.497 34.1899 145.641 33.7626 145.641 33.2402V23.933C145.641 23.1257 145.832 22.3659 146.263 21.6536C146.647 20.9888 147.222 20.419 147.94 19.9916C148.659 19.5642 149.473 19.3743 150.431 19.3743C151.39 19.3743 152.156 19.5642 152.731 19.9916C153.306 20.419 153.689 20.9413 153.929 21.6536C154.168 22.3184 154.264 23.0782 154.264 23.933V33.2402C154.264 33.7626 154.456 34.1899 154.791 34.5223C155.126 34.8547 155.558 35.0447 156.037 35.0447C156.564 35.0447 156.995 34.8547 157.33 34.5223C157.666 34.1899 157.809 33.7626 157.809 33.2402V23.8855C157.809 22.4609 157.618 21.1313 157.282 19.9916C156.947 18.8045 156.324 17.9022 155.414 17.1899Z" fill="#4C4C4C"/>
<path d="M164.421 16.3352C163.942 16.3352 163.51 16.5251 163.175 16.8575C162.84 17.1899 162.648 17.6173 162.648 18.1397V33.2402C162.648 33.7626 162.84 34.1899 163.175 34.5223C163.51 34.8547 163.942 35.0447 164.421 35.0447C164.948 35.0447 165.379 34.8547 165.714 34.5223C166.05 34.1899 166.193 33.7626 166.193 33.2402V18.1397C166.193 17.6173 166.05 17.1899 165.714 16.8575C165.379 16.4776 164.948 16.3352 164.421 16.3352Z" fill="#4C4C4C"/>
<path d="M164.421 10.2095C163.75 10.2095 163.271 10.3045 162.936 10.5419C162.6 10.7793 162.456 11.2067 162.456 11.7765V12.3464C162.456 12.9162 162.6 13.3436 162.936 13.581C163.223 13.8184 163.75 13.9609 164.421 13.9609C165.139 13.9609 165.666 13.8659 165.954 13.6285C166.289 13.3911 166.433 12.9637 166.433 12.3464V11.7765C166.433 11.2067 166.289 10.8268 165.954 10.5419C165.618 10.3045 165.139 10.2095 164.421 10.2095Z" fill="#4C4C4C"/>
<path d="M184.877 18.6145C184.063 17.8073 183.153 17.1425 182.099 16.7151C181.045 16.2402 179.943 16.0028 178.793 16.0028C177.26 16.0028 175.823 16.3827 174.481 17.1899C173.092 17.9972 171.99 19.0894 171.176 20.5615C170.313 22.0335 169.93 23.7905 169.93 25.8799C169.93 27.7318 170.313 29.3464 171.128 30.771C171.942 32.1955 173.044 33.3352 174.529 34.1425C176.014 34.9497 177.691 35.3771 179.655 35.3771C180.901 35.3771 182.099 35.1397 183.201 34.6648C184.35 34.1899 185.213 33.6676 185.836 33.0503C186.363 32.6229 186.602 32.148 186.602 31.6257C186.602 31.2458 186.458 30.8659 186.171 30.581C185.883 30.2961 185.548 30.1536 185.117 30.1536C184.782 30.1536 184.446 30.2486 184.063 30.486C183.776 30.7235 183.44 30.9609 183.057 31.2458C182.674 31.4832 182.195 31.7207 181.62 31.9106C181.045 32.1006 180.326 32.1955 179.464 32.1955C178.314 32.1955 177.308 31.9106 176.35 31.3883C175.44 30.8659 174.673 30.1061 174.146 29.1564C173.763 28.4441 173.475 27.6369 173.379 26.7346H185.788C186.267 26.7346 186.698 26.5922 187.033 26.2598C187.369 25.9749 187.56 25.5475 187.608 25.0726C187.608 23.7905 187.321 22.6034 186.842 21.4637C186.315 20.419 185.692 19.4693 184.877 18.6145ZM174.96 20.7514C175.44 20.2765 176.062 19.8966 176.685 19.6592C177.356 19.4218 178.027 19.3268 178.745 19.3268C179.56 19.3268 180.326 19.5168 181.045 19.8492C181.763 20.1816 182.386 20.6564 182.865 21.3212C183.344 21.9385 183.632 22.6508 183.728 23.5056V23.743H173.427C173.523 23.3631 173.571 23.0307 173.715 22.7458C174.05 21.8911 174.481 21.2263 174.96 20.7514Z" fill="#4C4C4C"/>
<path d="M204.999 17.095C204.089 16.3827 202.747 16.0503 201.07 16.0503C200.256 16.0503 199.441 16.1927 198.723 16.4777C198.004 16.7626 197.334 17.095 196.711 17.5698C196.136 18.0447 195.609 18.5196 195.178 19.0419C195.082 19.1369 195.034 19.2318 194.938 19.3743V18.2821C194.938 17.7598 194.747 17.3324 194.411 17C194.076 16.6676 193.645 16.4777 193.166 16.4777C192.639 16.4777 192.207 16.6676 191.872 17C191.537 17.3324 191.393 17.7598 191.393 18.2821V33.2402C191.393 33.7626 191.537 34.1899 191.872 34.5223C192.207 34.8547 192.639 35.0447 193.166 35.0447C193.645 35.0447 194.076 34.8547 194.411 34.5223C194.747 34.1899 194.938 33.7626 194.938 33.2402V23.7905C194.938 22.9358 195.13 22.176 195.561 21.5112C195.992 20.8464 196.567 20.2765 197.286 19.8966C198.004 19.4693 198.867 19.2793 199.873 19.2793C200.927 19.2793 201.741 19.4693 202.316 19.8966C202.891 20.324 203.322 20.8464 203.562 21.5112C203.801 22.176 203.897 22.9358 203.897 23.7905V33.2402C203.897 33.7626 204.041 34.1899 204.376 34.5223C204.711 34.8547 205.143 35.0447 205.67 35.0447C206.149 35.0447 206.58 34.8547 206.915 34.5223C207.251 34.1899 207.442 33.7626 207.442 33.2402V23.743C207.442 22.3184 207.251 20.9888 206.867 19.8492C206.58 18.7095 205.909 17.7598 204.999 17.095Z" fill="#4C4C4C"/>
<path d="M223.683 25.9274C223.108 25.5 222.437 25.1676 221.719 24.9302C221 24.6927 220.282 24.4553 219.515 24.2654C218.748 24.0754 218.03 23.8855 217.407 23.648C216.784 23.4106 216.257 23.1257 215.874 22.7458C215.491 22.4134 215.299 21.9385 215.299 21.3212C215.299 20.7039 215.443 20.1816 215.778 19.8492C216.114 19.5168 216.545 19.2793 217.024 19.1369C217.503 18.9944 217.982 18.9469 218.413 18.9469C219.323 18.9469 220.138 19.0894 220.856 19.4218C221.575 19.7542 222.15 20.1816 222.581 20.7514C222.821 20.9888 223.156 21.1313 223.587 21.1313C223.97 21.1313 224.354 21.0363 224.641 20.7989C225.072 20.4665 225.264 20.0866 225.216 19.6592C225.168 19.2318 225.024 18.852 224.785 18.567C224.258 17.9497 223.635 17.4749 222.916 17.095C222.198 16.7151 221.479 16.4302 220.713 16.2877C219.946 16.0978 219.228 16.0028 218.557 16.0028C217.359 16.0028 216.257 16.2402 215.251 16.6676C214.245 17.095 213.431 17.7598 212.808 18.5196C212.185 19.3268 211.85 20.2765 211.85 21.3687C211.85 22.3184 212.041 23.1257 212.425 23.7905C212.808 24.4553 213.335 24.9777 213.958 25.405C214.58 25.8324 215.251 26.1648 216.066 26.4022C216.832 26.6397 217.599 26.8771 218.365 27.1145C219.084 27.3045 219.755 27.4944 220.377 27.7318C221 27.9693 221.479 28.2542 221.863 28.5866C222.246 28.919 222.437 29.3939 222.437 30.0112C222.437 30.676 222.246 31.1508 221.91 31.5307C221.575 31.8631 221.144 32.1006 220.617 32.243C220.138 32.3855 219.611 32.433 219.132 32.4804C217.982 32.4804 216.976 32.2905 216.161 31.8631C215.347 31.4358 214.58 30.8659 213.91 30.1536C213.574 29.8212 213.239 29.6313 212.856 29.5838C212.473 29.5363 212.137 29.6313 211.802 29.8687C211.323 30.1536 211.083 30.5335 211.035 30.9609C210.987 31.3883 211.083 31.7682 211.323 32.1006C212.233 33.2877 213.383 34.1425 214.724 34.6173C216.066 35.0922 217.407 35.3296 218.796 35.3296C219.946 35.3296 221.048 35.1397 222.054 34.7123C223.108 34.2849 223.923 33.6676 224.641 32.8603C225.312 32.0531 225.647 31.0559 225.647 29.9162C225.647 28.919 225.456 28.1117 225.072 27.4469C224.737 26.8771 224.258 26.3073 223.683 25.9274Z" fill="#4C4C4C"/>
<path d="M231.061 10.2095C230.39 10.2095 229.911 10.3045 229.576 10.5419C229.24 10.7793 229.097 11.2067 229.097 11.7765V12.3464C229.097 12.9162 229.24 13.3436 229.576 13.581C229.863 13.8184 230.39 13.9609 231.061 13.9609C231.779 13.9609 232.306 13.8659 232.594 13.6285C232.929 13.3911 233.073 12.9637 233.073 12.3464V11.7765C233.073 11.2067 232.929 10.8268 232.594 10.5419C232.306 10.3045 231.779 10.2095 231.061 10.2095Z" fill="#4C4C4C"/>
<path d="M231.061 16.3352C230.582 16.3352 230.151 16.5251 229.815 16.8575C229.48 17.1899 229.288 17.6173 229.288 18.1397V33.2402C229.288 33.7626 229.48 34.1899 229.815 34.5223C230.151 34.8547 230.582 35.0447 231.061 35.0447C231.588 35.0447 232.019 34.8547 232.354 34.5223C232.69 34.1899 232.833 33.7626 232.833 33.2402V18.1397C232.833 17.6173 232.69 17.1899 232.354 16.8575C232.019 16.4776 231.588 16.3352 231.061 16.3352Z" fill="#4C4C4C"/>
<path d="M251.566 18.6145C250.751 17.8073 249.841 17.1425 248.787 16.7151C247.733 16.2402 246.631 16.0028 245.481 16.0028C243.948 16.0028 242.511 16.3827 241.169 17.1899C239.78 17.9972 238.678 19.0894 237.864 20.5615C237.001 22.0335 236.618 23.7905 236.618 25.8799C236.618 27.7318 237.001 29.3464 237.816 30.771C238.63 32.1955 239.732 33.3352 241.217 34.1425C242.703 34.9497 244.379 35.3771 246.344 35.3771C247.589 35.3771 248.787 35.1397 249.889 34.6648C251.039 34.1899 251.901 33.6676 252.524 33.0503C253.051 32.6229 253.29 32.148 253.29 31.6257C253.29 31.2458 253.146 30.8659 252.859 30.581C252.572 30.2961 252.236 30.1536 251.805 30.1536C251.47 30.1536 251.134 30.2486 250.751 30.486C250.464 30.7235 250.128 30.9609 249.745 31.2458C249.362 31.4832 248.883 31.7207 248.308 31.9106C247.733 32.1006 247.014 32.1955 246.152 32.1955C245.002 32.1955 243.996 31.9106 243.038 31.3883C242.128 30.8659 241.361 30.1061 240.834 29.1564C240.451 28.4441 240.163 27.6369 240.068 26.7346H252.476C252.955 26.7346 253.386 26.5922 253.721 26.2598C254.057 25.9749 254.248 25.5475 254.296 25.0726C254.296 23.7905 254.009 22.6034 253.53 21.4637C253.003 20.419 252.38 19.4693 251.566 18.6145ZM241.649 20.7514C242.128 20.2765 242.75 19.8966 243.373 19.6592C244.044 19.4218 244.715 19.3268 245.433 19.3268C246.248 19.3268 247.014 19.5168 247.733 19.8492C248.451 20.1816 249.074 20.6564 249.553 21.3212C250.032 21.9385 250.32 22.6508 250.416 23.5056V23.743H240.116C240.211 23.3631 240.259 23.0307 240.403 22.7458C240.738 21.8911 241.122 21.2263 241.649 20.7514Z" fill="#4C4C4C"/>
<path d="M259.854 30.6285H259.47C258.895 30.6285 258.416 30.7709 258.081 31.1033C257.746 31.4357 257.602 31.9106 257.602 32.4804V33.0978C257.602 33.6676 257.746 34.1424 258.081 34.4748C258.416 34.8072 258.848 34.9497 259.47 34.9497H259.854C260.429 34.9497 260.908 34.8072 261.195 34.4748C261.483 34.1424 261.674 33.6676 261.674 33.0978V32.4804C261.674 31.9106 261.53 31.4357 261.195 31.1033C260.908 30.8184 260.429 30.6285 259.854 30.6285Z" fill="#4C4C4C"/>
<path d="M280.071 17.3799C278.777 16.5726 277.292 16.1452 275.615 16.1452C274.801 16.1452 274.034 16.2877 273.268 16.5251C272.501 16.7626 271.831 17.1425 271.256 17.5698C270.681 17.9972 270.202 18.4721 269.819 18.9469C269.771 18.9944 269.771 19.0419 269.723 19.0894V18.2346C269.723 17.7598 269.531 17.3324 269.196 16.9525C268.86 16.6201 268.429 16.4302 267.95 16.4302C267.423 16.4302 266.992 16.6201 266.657 16.9525C266.321 17.2849 266.177 17.7123 266.177 18.2346V40.3631C266.177 40.8855 266.321 41.3128 266.657 41.6452C266.992 41.9776 267.423 42.1676 267.95 42.1676C268.429 42.1676 268.86 41.9776 269.196 41.6452C269.531 41.3128 269.723 40.8855 269.723 40.3631V32.6704C270.058 33.0978 270.489 33.4777 271.016 33.8575C271.639 34.3324 272.358 34.7123 273.172 34.9497C273.987 35.2346 274.849 35.3771 275.759 35.3771C277.388 35.3771 278.825 34.9497 280.119 34.1425C281.412 33.3352 282.418 32.1955 283.185 30.7235C283.951 29.2514 284.335 27.5894 284.335 25.7374C284.335 23.838 283.951 22.176 283.185 20.7514C282.37 19.3268 281.364 18.1871 280.071 17.3799ZM280.119 29.014C279.64 30.0112 278.969 30.7709 278.155 31.2933C277.34 31.8631 276.334 32.1006 275.232 32.1006C274.082 32.1006 273.076 31.8156 272.262 31.2933C271.399 30.7235 270.777 29.9637 270.298 29.014C269.819 28.0168 269.579 26.9246 269.579 25.7374C269.579 24.5028 269.819 23.4106 270.298 22.4609C270.777 21.5112 271.447 20.7514 272.262 20.229C273.124 19.6592 274.082 19.4218 275.232 19.4218C276.334 19.4218 277.34 19.7067 278.155 20.229C278.969 20.7989 279.64 21.5587 280.119 22.5084C280.598 23.4581 280.837 24.5503 280.837 25.7374C280.837 26.9246 280.598 28.0168 280.119 29.014Z" fill="#4C4C4C"/>
<path d="M291.521 9.40223C291.186 9.06983 290.754 8.87988 290.275 8.87988C289.796 8.87988 289.365 9.06983 288.982 9.40223C288.646 9.73463 288.455 10.162 288.455 10.6844V33.2402C288.455 33.7626 288.646 34.1899 288.982 34.5223C289.317 34.8547 289.748 35.0447 290.227 35.0447C290.706 35.0447 291.138 34.8547 291.473 34.5223C291.808 34.1899 292 33.7626 292 33.2402V10.6844C292 10.162 291.808 9.73463 291.521 9.40223Z" fill="#4C4C4C"/>
</g>
<defs>
<clipPath id="clip0_202_2722">
<rect width="292" height="51" fill="white"/>
</clipPath>
</defs>
</svg>
